<svg id="svg" version="1.1" xmlns="http://www.w3.org/2000/svg" xmlns:xlink="http://www.w3.org/1999/xlink" width="400" height="400" viewBox="0, 0, 400,400"><g id="svgg"><path id="path0" d="M177.711 87.992 C 177.678 88.428,177.819 88.888,178.025 89.016 C 178.231 89.143,178.400 88.787,178.400 88.224 C 178.400 87.027,177.798 86.825,177.711 87.992 M344.488 90.007 C 344.138 90.568,344.134 90.835,344.470 91.043 C 344.748 91.215,344.813 91.145,344.638 90.862 C 344.481 90.608,344.555 90.400,344.803 90.400 C 345.058 90.400,345.198 90.877,345.127 91.500 L 345.000 92.600 283.482 92.800 L 221.963 93.000 222.178 92.146 C 222.393 91.287,221.555 90.178,221.063 90.670 C 220.607 91.127,220.776 91.535,221.500 91.724 C 222.143 91.892,222.141 91.911,221.471 91.954 C 220.682 92.004,220.609 93.708,221.353 94.723 C 221.574 95.025,221.581 95.216,221.368 95.175 C 220.314 94.975,219.789 95.205,220.400 95.600 C 220.730 95.813,220.843 95.991,220.651 95.994 C 220.459 95.997,220.510 96.251,220.765 96.558 C 221.120 96.985,221.095 97.248,220.657 97.685 C 219.948 98.395,219.689 138.000,220.394 138.000 C 220.627 138.000,220.800 139.095,220.800 140.567 C 220.800 141.978,220.972 143.193,221.182 143.267 C 221.393 143.340,221.609 144.063,221.663 144.874 C 221.716 145.685,221.904 146.259,222.080 146.151 C 222.256 146.042,222.400 146.593,222.400 147.376 C 222.400 148.159,222.580 148.800,222.800 148.800 C 223.020 148.800,223.200 149.239,223.200 149.776 C 223.200 150.313,223.380 150.864,223.600 151.000 C 223.820 151.136,224.000 151.582,224.000 151.990 C 224.000 152.399,224.142 152.793,224.315 152.867 C 224.488 152.940,225.128 153.990,225.737 155.200 C 227.042 157.793,228.387 160.119,228.745 160.400 C 228.885 160.510,229.657 161.410,230.460 162.400 C 233.917 166.663,239.265 171.455,240.034 170.979 C 240.235 170.855,240.400 171.044,240.400 171.400 C 240.400 171.756,240.580 171.936,240.800 171.800 C 241.020 171.664,241.200 171.743,241.200 171.976 C 241.200 172.209,241.470 172.400,241.800 172.400 C 242.130 172.400,242.400 172.591,242.400 172.824 C 242.400 173.057,242.580 173.136,242.800 173.000 C 243.020 172.864,243.200 172.910,243.200 173.102 C 243.200 173.533,246.260 175.200,247.052 175.200 C 247.369 175.200,248.073 175.491,248.616 175.847 C 249.458 176.399,249.704 176.414,250.279 175.947 C 250.662 175.636,250.832 175.603,250.671 175.871 C 250.503 176.152,250.714 176.446,251.194 176.598 C 251.637 176.739,252.000 177.058,252.000 177.307 C 252.000 177.629,252.138 177.622,252.480 177.280 C 252.744 177.016,253.134 176.800,253.347 176.800 C 253.559 176.800,253.616 176.917,253.473 177.060 C 253.132 177.401,254.428 178.378,255.200 178.362 C 255.530 178.355,255.395 178.187,254.900 177.988 C 254.405 177.789,254.000 177.350,254.000 177.013 C 254.000 176.468,257.218 176.400,283.000 176.400 C 305.930 176.400,312.001 176.505,312.006 176.900 C 312.011 177.262,312.109 177.248,312.361 176.849 C 312.553 176.546,312.921 176.428,313.179 176.587 C 313.790 176.965,312.452 177.995,311.717 177.713 C 311.433 177.604,311.200 177.714,311.200 177.957 C 311.200 178.684,312.215 178.461,313.285 177.500 C 315.076 175.891,315.922 175.531,316.305 176.216 C 316.625 176.787,319.200 176.015,319.200 175.347 C 319.200 175.240,319.050 175.245,318.867 175.359 C 318.683 175.472,318.533 175.313,318.533 175.005 C 318.533 174.382,319.238 174.379,319.694 175.000 C 319.876 175.248,319.990 175.210,319.994 174.900 C 319.997 174.625,320.281 174.400,320.624 174.400 C 320.967 174.400,321.136 174.220,321.000 174.000 C 320.854 173.764,321.304 173.600,322.101 173.600 C 322.907 173.600,323.803 173.270,324.330 172.780 C 324.814 172.328,325.343 172.030,325.505 172.116 C 325.932 172.343,327.183 170.922,326.867 170.570 C 326.720 170.406,326.895 170.378,327.256 170.507 C 327.930 170.747,329.600 169.503,329.600 168.761 C 329.600 168.536,329.780 168.464,330.000 168.600 C 330.220 168.736,330.400 168.657,330.400 168.424 C 330.400 168.191,330.552 168.045,330.738 168.100 C 331.168 168.227,334.800 164.579,334.800 164.019 C 334.800 163.789,334.945 163.600,335.123 163.600 C 335.658 163.600,339.200 158.541,339.200 157.777 C 339.200 157.386,339.320 157.187,339.468 157.334 C 339.778 157.645,341.600 154.590,341.600 153.759 C 341.600 153.452,341.780 153.200,342.000 153.200 C 342.220 153.200,342.400 152.840,342.400 152.400 C 342.400 151.960,342.580 151.600,342.800 151.600 C 343.020 151.600,343.200 151.150,343.200 150.600 C 343.200 150.050,343.380 149.600,343.600 149.600 C 343.820 149.600,344.000 149.060,344.000 148.400 C 344.000 147.740,344.180 147.200,344.400 147.200 C 344.620 147.200,344.800 146.480,344.800 145.600 C 344.800 144.720,344.980 144.000,345.200 144.000 C 345.420 144.000,345.600 143.111,345.600 142.024 C 345.600 140.937,345.786 139.932,346.014 139.791 C 346.810 139.299,346.475 96.356,345.670 95.689 C 345.047 95.174,345.050 95.150,345.700 95.355 C 346.538 95.618,346.732 93.702,345.900 93.383 C 345.589 93.264,345.423 92.512,345.460 91.395 C 345.528 89.373,345.188 88.888,344.488 90.007 M54.485 91.691 C 54.465 92.393,54.575 92.795,54.729 92.584 C 54.883 92.373,55.127 92.110,55.272 91.999 C 55.416 91.889,55.307 91.487,55.028 91.106 C 54.579 90.492,54.517 90.559,54.485 91.691 M178.800 92.167 C 178.800 93.039,181.502 93.011,116.598 92.800 C 49.263 92.581,52.486 92.480,53.892 94.764 C 54.181 95.233,54.230 95.658,54.011 95.793 C 53.789 95.930,53.627 104.916,53.610 118.041 C 53.591 132.960,53.713 139.977,53.991 139.806 C 54.249 139.646,54.400 140.291,54.400 141.553 C 54.400 142.653,54.580 143.664,54.800 143.800 C 55.020 143.936,55.200 144.656,55.200 145.400 C 55.200 146.144,55.380 146.864,55.600 147.000 C 55.820 147.136,56.000 147.787,56.000 148.447 C 56.000 149.145,56.167 149.544,56.400 149.400 C 56.626 149.261,56.800 149.585,56.800 150.143 C 56.800 151.041,58.624 154.886,60.313 157.549 C 61.413 159.285,66.091 165.600,66.275 165.600 C 66.370 165.600,66.319 165.392,66.162 165.138 C 65.985 164.852,66.052 164.785,66.338 164.962 C 66.592 165.119,66.800 165.475,66.800 165.754 C 66.800 166.033,67.250 166.683,67.800 167.200 C 68.350 167.717,68.800 168.011,68.800 167.854 C 68.800 167.696,69.535 168.250,70.433 169.084 C 71.331 169.918,72.501 170.831,73.033 171.113 C 73.565 171.395,74.000 171.819,74.000 172.056 C 74.000 172.292,74.279 172.378,74.621 172.247 C 75.026 172.092,75.142 172.170,74.955 172.473 C 74.767 172.777,74.886 172.853,75.301 172.693 C 75.665 172.554,76.027 172.694,76.154 173.025 C 76.280 173.353,76.905 173.600,77.611 173.600 C 78.428 173.600,78.752 173.753,78.568 174.052 C 78.398 174.327,78.506 174.430,78.844 174.315 C 79.150 174.210,79.827 174.592,80.348 175.163 C 81.064 175.945,81.234 176.015,81.040 175.446 C 80.800 174.740,80.842 174.732,81.692 175.314 C 82.191 175.656,82.545 176.161,82.477 176.436 C 82.382 176.824,82.493 176.820,82.977 176.419 C 83.485 175.997,83.600 175.997,83.600 176.418 C 83.600 176.701,83.718 176.815,83.863 176.670 C 84.008 176.525,84.352 176.594,84.628 176.823 C 84.956 177.095,85.214 177.102,85.374 176.842 C 85.709 176.299,146.000 176.229,146.000 176.771 C 146.000 176.998,146.701 176.917,147.656 176.580 C 148.832 176.165,149.460 176.118,149.821 176.417 C 150.436 176.928,151.002 176.250,150.558 175.532 C 150.373 175.232,150.472 175.146,150.834 175.294 C 152.471 175.958,153.002 176.077,152.400 175.644 C 151.925 175.302,152.092 175.208,153.200 175.193 C 154.526 175.176,154.558 175.143,153.814 174.580 C 153.073 174.020,153.097 173.999,154.236 174.227 C 155.078 174.396,155.603 174.278,155.968 173.839 C 156.255 173.492,156.650 173.307,156.845 173.428 C 157.040 173.549,157.200 173.427,157.200 173.157 C 157.200 172.887,157.318 172.785,157.463 172.930 C 157.859 173.325,158.831 172.374,158.530 171.887 C 158.370 171.628,158.514 171.558,158.901 171.707 C 159.265 171.846,159.627 171.706,159.754 171.375 C 159.876 171.059,160.248 170.800,160.582 170.800 C 160.915 170.800,163.036 169.001,165.294 166.802 C 167.552 164.602,169.546 162.802,169.724 162.802 C 169.902 162.801,169.956 162.653,169.845 162.473 C 169.734 162.293,170.048 161.708,170.544 161.173 C 171.555 160.082,174.400 155.364,174.400 154.779 C 174.400 154.570,174.580 154.400,174.800 154.400 C 175.020 154.400,175.200 153.939,175.200 153.376 C 175.200 152.796,175.373 152.460,175.600 152.600 C 175.826 152.740,176.000 152.412,176.000 151.847 C 176.000 151.297,176.180 150.736,176.400 150.600 C 176.620 150.464,176.800 150.003,176.800 149.576 C 176.800 149.149,176.980 148.800,177.200 148.800 C 177.420 148.800,177.600 148.408,177.600 147.928 C 177.600 147.449,177.796 146.414,178.036 145.628 C 179.034 142.362,179.169 141.704,179.254 139.700 C 179.303 138.545,179.492 137.600,179.673 137.600 C 179.855 137.600,179.988 128.780,179.969 118.000 C 179.944 103.844,179.810 98.400,179.487 98.400 C 179.176 98.400,179.186 98.254,179.520 97.920 C 180.094 97.346,180.163 95.600,179.613 95.600 C 179.399 95.600,179.322 95.852,179.440 96.160 C 179.558 96.467,179.434 96.855,179.165 97.021 C 178.846 97.219,178.779 97.157,178.973 96.844 C 179.136 96.581,179.028 96.068,178.734 95.706 C 178.353 95.236,178.343 95.133,178.700 95.347 C 179.074 95.571,179.200 95.136,179.200 93.624 C 179.200 92.511,179.110 91.600,179.000 91.600 C 178.890 91.600,178.800 91.855,178.800 92.167 M90.129 178.608 C 90.388 178.890,90.660 178.959,90.733 178.761 C 90.807 178.562,91.042 178.400,91.257 178.400 C 91.472 178.400,91.522 178.603,91.368 178.852 C 91.201 179.121,91.303 179.232,91.619 179.127 C 92.712 178.763,92.361 178.168,91.034 178.132 C 89.936 178.103,89.753 178.199,90.129 178.608 M261.707 178.921 C 261.813 179.740,262.498 179.907,262.742 179.174 C 262.831 178.907,262.716 178.805,262.486 178.947 C 262.256 179.089,261.966 178.979,261.841 178.702 C 261.716 178.426,261.656 178.525,261.707 178.921 M96.196 179.137 C 95.752 179.581,96.581 180.000,97.904 180.000 C 99.069 180.000,99.260 179.900,98.860 179.500 C 98.381 179.021,96.560 178.773,96.196 179.137 M137.200 179.262 C 137.200 179.871,137.929 179.967,138.385 179.418 C 138.773 178.951,138.708 178.857,138.030 178.908 C 137.574 178.942,137.200 179.101,137.200 179.262 M301.152 179.458 C 300.723 179.975,300.869 180.039,302.227 179.928 C 303.092 179.858,303.800 179.640,303.800 179.445 C 303.800 178.824,301.669 178.835,301.152 179.458 M107.900 179.900 C 112.575 179.964,120.225 179.964,124.900 179.900 C 129.575 179.836,125.750 179.783,116.400 179.783 C 107.050 179.783,103.225 179.836,107.900 179.900 M275.100 179.900 C 279.775 179.964,287.425 179.964,292.100 179.900 C 296.775 179.836,292.950 179.783,283.600 179.783 C 274.250 179.783,270.425 179.836,275.100 179.900 " stroke="none" fill="#4b44dc" fill-rule="evenodd"></path><path id="path1" d="M77.000 174.000 C 77.136 174.220,77.496 174.400,77.800 174.400 C 78.104 174.400,78.464 174.220,78.600 174.000 C 78.741 173.772,78.396 173.600,77.800 173.600 C 77.204 173.600,76.859 173.772,77.000 174.000 M321.000 174.000 C 321.136 174.220,320.967 174.400,320.624 174.400 C 320.281 174.400,320.000 174.564,320.000 174.765 C 320.000 175.135,320.291 175.109,321.900 174.594 C 323.116 174.206,323.041 173.600,321.776 173.600 C 321.196 173.600,320.860 173.773,321.000 174.000 M78.996 174.407 C 78.860 174.626,79.038 174.917,79.392 175.052 C 80.253 175.383,80.443 175.114,79.781 174.504 C 79.439 174.189,79.152 174.153,78.996 174.407 M318.567 175.055 C 318.609 175.342,318.798 175.717,318.986 175.888 C 319.174 176.060,319.199 175.975,319.041 175.700 C 318.882 175.425,318.943 175.200,319.176 175.200 C 319.409 175.200,319.600 175.050,319.600 174.867 C 319.600 174.683,319.350 174.533,319.045 174.533 C 318.740 174.533,318.525 174.768,318.567 175.055 M81.037 175.351 C 81.157 175.665,81.558 176.029,81.928 176.161 C 82.297 176.293,82.825 176.505,83.100 176.634 C 83.375 176.762,83.600 176.661,83.600 176.410 C 83.600 176.158,83.432 176.056,83.228 176.183 C 83.023 176.309,82.743 176.231,82.605 176.009 C 82.150 175.272,80.787 174.701,81.037 175.351 M150.571 176.020 C 150.571 176.654,150.649 176.658,151.586 176.074 C 152.144 175.727,152.645 175.418,152.700 175.388 C 152.755 175.358,152.299 175.333,151.686 175.333 C 150.900 175.333,150.571 175.535,150.571 176.020 M250.183 176.027 C 250.038 176.262,249.658 176.354,249.339 176.232 C 249.015 176.107,248.866 176.184,249.003 176.405 C 249.137 176.622,249.651 176.800,250.144 176.800 C 250.637 176.800,251.256 177.016,251.520 177.280 C 251.862 177.622,252.000 177.629,252.000 177.307 C 252.000 177.058,251.637 176.739,251.194 176.598 C 250.751 176.457,250.492 176.175,250.618 175.971 C 250.744 175.767,250.757 175.600,250.647 175.600 C 250.537 175.600,250.328 175.792,250.183 176.027 M314.900 176.170 C 314.405 176.401,314.000 176.749,314.000 176.944 C 314.000 177.139,313.716 177.062,313.370 176.775 C 312.847 176.341,312.677 176.350,312.376 176.826 C 312.123 177.224,312.010 177.247,312.006 176.900 C 312.001 176.505,305.921 176.400,282.953 176.400 C 254.097 176.400,253.908 176.405,254.116 177.201 C 254.231 177.641,254.162 177.900,253.963 177.777 C 253.763 177.654,253.600 177.720,253.600 177.923 C 253.600 178.127,254.320 178.253,255.200 178.204 C 256.326 178.140,256.800 178.275,256.800 178.657 C 256.800 178.956,256.991 179.200,257.224 179.200 C 257.457 179.200,257.536 179.020,257.400 178.800 C 257.264 178.580,257.343 178.400,257.576 178.400 C 257.809 178.400,258.000 178.569,258.000 178.775 C 258.000 178.981,258.340 179.125,258.756 179.093 C 259.239 179.057,259.445 178.813,259.326 178.418 C 259.202 178.008,259.295 178.043,259.602 178.522 C 259.991 179.129,260.167 179.161,260.709 178.722 C 261.188 178.334,261.276 178.329,261.053 178.700 C 260.888 178.975,260.928 179.200,261.143 179.200 C 261.358 179.200,261.624 178.975,261.735 178.700 C 261.890 178.315,261.944 178.321,261.968 178.724 C 261.986 179.019,262.204 179.121,262.468 178.958 C 262.766 178.774,262.857 178.874,262.719 179.234 C 262.470 179.883,300.553 179.889,301.370 179.241 C 301.976 178.760,303.821 179.004,303.700 179.548 C 303.554 180.208,304.675 180.102,304.932 179.432 C 305.052 179.119,305.477 178.916,305.875 178.980 C 306.274 179.045,306.825 178.918,307.100 178.700 C 307.448 178.423,307.600 178.462,307.600 178.827 C 307.600 179.155,307.837 179.061,308.230 178.576 C 308.576 178.149,308.753 178.013,308.623 178.272 C 308.493 178.532,308.570 178.858,308.793 178.996 C 309.017 179.134,309.200 178.977,309.200 178.647 C 309.200 178.317,309.411 177.917,309.668 177.758 C 309.980 177.565,310.053 177.684,309.888 178.114 C 309.615 178.826,310.765 178.611,311.270 177.855 C 311.443 177.596,311.773 177.645,312.192 177.993 C 312.745 178.452,312.826 178.448,312.723 177.968 C 312.632 177.547,312.947 177.434,313.943 177.531 C 314.734 177.609,315.188 177.504,315.047 177.277 C 314.916 177.064,315.059 176.683,315.366 176.429 C 315.791 176.076,315.971 176.089,316.130 176.483 C 316.272 176.838,316.347 176.851,316.368 176.524 C 316.415 175.819,315.913 175.698,314.900 176.170 M147.500 176.607 C 146.636 176.925,146.000 176.993,146.000 176.768 C 146.000 176.013,85.758 176.327,85.130 177.086 C 84.654 177.660,84.759 177.696,86.154 177.435 C 87.471 177.188,87.670 177.239,87.466 177.772 C 87.334 178.117,87.399 178.400,87.613 178.400 C 87.826 178.400,88.011 177.995,88.025 177.500 L 88.051 176.600 88.423 177.528 C 88.709 178.243,88.990 178.393,89.647 178.185 C 90.300 177.978,90.423 178.042,90.173 178.457 C 89.918 178.881,89.973 178.902,90.423 178.555 C 91.231 177.930,92.483 178.008,92.230 178.667 C 91.939 179.423,92.687 179.331,93.121 178.556 C 93.449 177.969,93.503 177.971,93.738 178.582 C 93.879 178.950,94.177 179.138,94.400 179.000 C 94.623 178.862,94.914 179.031,95.046 179.375 C 95.318 180.084,96.454 180.242,96.300 179.548 C 96.180 179.006,98.023 178.760,98.626 179.238 C 99.333 179.798,137.533 179.891,137.319 179.332 C 137.204 179.033,137.512 178.905,138.169 178.977 C 138.736 179.039,139.203 178.890,139.206 178.645 C 139.210 178.337,139.303 178.330,139.506 178.625 C 139.858 179.132,141.574 179.139,142.362 178.635 C 142.749 178.388,142.835 178.420,142.638 178.738 C 142.481 178.992,142.543 179.200,142.776 179.200 C 143.009 179.200,143.200 179.020,143.200 178.800 C 143.200 178.580,143.549 178.400,143.976 178.400 C 144.403 178.400,144.872 178.208,145.017 177.973 C 145.162 177.738,145.527 177.640,145.828 177.755 C 146.128 177.871,146.476 177.801,146.600 177.600 C 146.724 177.399,147.057 177.324,147.339 177.432 C 147.964 177.672,150.094 176.627,149.727 176.261 C 149.396 175.930,149.307 175.944,147.500 176.607 M95.600 220.393 C 95.270 220.610,93.965 220.791,92.700 220.794 C 91.435 220.797,90.400 220.980,90.400 221.200 C 90.400 221.420,89.781 221.600,89.024 221.600 C 88.267 221.600,87.536 221.780,87.400 222.000 C 87.264 222.220,86.613 222.400,85.953 222.400 C 85.255 222.400,84.856 222.567,85.000 222.800 C 85.147 223.038,84.671 223.200,83.824 223.200 C 83.041 223.200,82.400 223.380,82.400 223.600 C 82.400 223.820,82.040 224.000,81.600 224.000 C 81.160 224.000,80.800 224.180,80.800 224.400 C 80.800 224.620,80.502 224.800,80.138 224.800 C 78.405 224.800,68.475 231.516,68.423 232.724 C 68.410 233.012,68.225 233.139,68.011 233.007 C 67.611 232.759,67.444 232.927,65.042 236.000 C 64.269 236.990,63.373 238.100,63.051 238.467 C 62.730 238.833,62.572 239.238,62.700 239.367 C 62.828 239.495,62.623 239.600,62.243 239.600 C 61.863 239.600,61.650 239.757,61.768 239.948 C 61.958 240.256,61.623 240.776,59.983 242.710 C 59.745 242.990,59.475 243.620,59.383 244.110 C 59.162 245.291,58.348 246.800,57.932 246.800 C 57.750 246.800,57.600 247.261,57.600 247.824 C 57.600 248.495,57.441 248.749,57.138 248.562 C 56.882 248.404,56.784 248.450,56.918 248.667 C 57.050 248.882,56.888 249.580,56.556 250.219 C 56.225 250.858,56.034 251.688,56.133 252.064 C 56.231 252.441,56.061 252.844,55.756 252.962 C 55.450 253.079,55.200 253.380,55.200 253.630 C 55.200 253.881,55.461 253.986,55.780 253.863 C 56.167 253.715,56.285 253.833,56.137 254.220 C 55.943 254.725,63.764 254.800,116.557 254.800 C 174.043 254.800,177.200 254.764,177.206 254.100 C 177.211 253.499,177.270 253.485,177.618 254.000 C 177.914 254.437,177.950 254.274,177.750 253.400 C 177.600 252.740,177.324 252.140,177.138 252.067 C 176.952 251.993,176.800 251.318,176.800 250.567 C 176.800 249.815,176.620 249.200,176.400 249.200 C 176.180 249.200,176.000 248.859,176.000 248.443 C 176.000 248.026,175.733 247.583,175.407 247.458 C 175.080 247.333,174.911 246.977,175.030 246.667 C 175.149 246.357,174.974 245.831,174.642 245.499 C 174.310 245.167,174.151 244.782,174.290 244.643 C 174.428 244.505,174.195 244.129,173.771 243.809 C 173.347 243.488,173.163 243.220,173.362 243.213 C 173.561 243.206,173.381 242.821,172.962 242.358 C 172.543 241.895,172.238 241.400,172.285 241.258 C 172.332 241.116,171.972 240.552,171.485 240.005 C 170.998 239.458,170.225 238.405,169.766 237.665 C 169.307 236.926,168.767 236.305,168.566 236.287 C 168.365 236.269,167.840 235.792,167.400 235.227 C 166.097 233.555,161.880 229.600,161.400 229.600 C 161.156 229.600,160.271 228.972,159.433 228.204 C 158.595 227.437,157.750 226.908,157.555 227.028 C 157.360 227.149,157.200 227.046,157.200 226.800 C 157.200 226.554,157.031 226.457,156.825 226.585 C 156.618 226.712,156.303 226.588,156.125 226.308 C 155.661 225.582,154.148 224.800,153.205 224.800 C 152.762 224.800,152.400 224.620,152.400 224.400 C 152.400 224.180,152.130 224.000,151.800 224.000 C 151.470 224.000,151.200 223.820,151.200 223.600 C 151.200 223.380,150.671 223.200,150.024 223.200 C 149.377 223.200,148.736 223.020,148.600 222.800 C 148.464 222.580,147.924 222.400,147.400 222.400 C 146.876 222.400,146.336 222.220,146.200 222.000 C 146.064 221.780,145.243 221.600,144.376 221.600 C 143.509 221.600,142.800 221.435,142.800 221.234 C 142.800 220.335,96.930 219.517,95.600 220.393 M262.400 220.404 C 262.070 220.615,260.765 220.791,259.500 220.794 C 258.235 220.797,257.200 220.980,257.200 221.200 C 257.200 221.420,256.480 221.600,255.600 221.600 C 254.720 221.600,254.000 221.780,254.000 222.000 C 254.000 222.220,253.471 222.400,252.824 222.400 C 252.177 222.400,251.536 222.580,251.400 222.800 C 251.264 223.020,250.713 223.200,250.176 223.200 C 249.639 223.200,249.200 223.380,249.200 223.600 C 249.200 223.820,248.750 224.000,248.200 224.000 C 247.650 224.000,247.199 224.135,247.197 224.300 C 247.193 224.659,245.256 225.600,244.520 225.600 C 244.234 225.600,244.000 225.780,244.000 226.000 C 244.000 226.220,243.764 226.400,243.475 226.400 C 243.187 226.400,242.564 226.760,242.092 227.200 C 241.620 227.640,241.046 228.000,240.817 228.000 C 240.588 228.000,240.400 228.162,240.400 228.361 C 240.400 228.559,239.905 228.897,239.300 229.111 C 237.743 229.662,229.200 238.193,229.200 239.197 C 229.200 239.418,229.009 239.600,228.776 239.600 C 228.543 239.600,228.464 239.780,228.600 240.000 C 228.736 240.220,228.657 240.400,228.424 240.400 C 228.191 240.400,228.000 240.588,228.000 240.817 C 228.000 241.046,227.640 241.620,227.200 242.092 C 226.760 242.564,226.400 243.187,226.400 243.475 C 226.400 243.764,226.220 244.000,226.000 244.000 C 225.780 244.000,225.600 244.416,225.600 244.925 C 225.600 245.433,225.240 246.236,224.800 246.708 C 224.360 247.180,224.000 248.035,224.000 248.607 C 224.000 249.268,223.838 249.547,223.556 249.373 C 223.248 249.182,223.156 249.651,223.256 250.898 C 223.361 252.218,223.267 252.647,222.900 252.506 C 222.623 252.400,222.400 252.612,222.400 252.981 C 222.400 253.383,222.583 253.534,222.862 253.362 C 223.148 253.185,223.215 253.252,223.038 253.538 C 222.881 253.792,222.532 254.000,222.262 254.000 C 221.992 254.000,221.771 254.350,221.771 254.778 C 221.771 255.311,221.914 255.438,222.224 255.180 C 222.859 254.653,343.833 254.677,343.700 255.204 C 343.645 255.422,343.867 255.600,344.192 255.600 C 344.518 255.600,344.894 256.095,345.027 256.700 C 345.431 258.532,345.535 258.657,345.568 257.349 C 345.586 256.661,345.344 255.886,345.032 255.627 C 344.696 255.348,344.526 254.669,344.615 253.965 C 344.702 253.274,344.605 252.874,344.383 253.011 C 344.056 253.212,343.799 252.071,343.953 251.100 C 343.979 250.935,343.746 250.800,343.435 250.800 C 343.069 250.800,342.909 250.445,342.981 249.790 C 343.042 249.235,342.936 248.684,342.746 248.567 C 342.556 248.449,342.400 248.003,342.400 247.576 C 342.400 247.149,342.220 246.800,342.000 246.800 C 341.780 246.800,341.600 246.429,341.600 245.976 C 341.600 245.523,341.440 245.252,341.244 245.373 C 341.048 245.494,340.772 244.978,340.631 244.226 C 340.490 243.474,340.245 242.800,340.087 242.729 C 339.660 242.537,337.200 238.839,337.200 238.388 C 337.200 238.175,336.919 238.000,336.576 238.000 C 336.233 238.000,336.064 237.820,336.200 237.600 C 336.336 237.380,336.257 237.200,336.024 237.200 C 335.791 237.200,335.600 237.012,335.600 236.782 C 335.600 236.552,335.195 235.944,334.700 235.432 C 334.205 234.920,333.510 234.163,333.155 233.750 C 332.800 233.338,331.932 232.550,331.225 232.000 C 330.519 231.450,329.309 230.469,328.536 229.820 C 327.764 229.171,326.797 228.451,326.388 228.220 C 323.541 226.612,322.400 226.040,322.400 226.222 C 322.400 226.337,322.006 226.064,321.525 225.616 C 321.043 225.167,320.323 224.800,319.925 224.800 C 319.526 224.800,319.200 224.620,319.200 224.400 C 319.200 224.180,318.840 224.000,318.400 224.000 C 317.960 224.000,317.600 223.820,317.600 223.600 C 317.600 223.380,317.060 223.200,316.400 223.200 C 315.740 223.200,315.200 223.020,315.200 222.800 C 315.200 222.580,314.660 222.400,314.000 222.400 C 313.340 222.400,312.800 222.220,312.800 222.000 C 312.800 221.780,312.116 221.600,311.280 221.600 C 310.444 221.600,309.589 221.436,309.380 221.235 C 308.408 220.302,263.794 219.513,262.400 220.404 " stroke="none" fill="#7244e4" fill-rule="evenodd"></path><path id="path2" d="M343.115 252.267 C 343.213 252.780,343.341 253.200,343.400 253.200 C 343.459 253.200,343.587 252.780,343.685 252.267 C 343.789 251.723,343.670 251.333,343.400 251.333 C 343.130 251.333,343.011 251.723,343.115 252.267 M55.800 253.906 C 55.185 254.358,55.100 255.597,55.682 255.625 C 55.967 255.639,55.812 255.807,55.339 255.998 C 54.387 256.382,54.225 257.329,53.759 265.189 C 53.465 270.162,54.018 282.667,54.424 280.200 C 54.626 278.966,54.699 279.354,54.743 281.900 L 54.800 285.200 116.576 285.200 L 178.352 285.200 178.509 283.700 C 178.595 282.875,178.696 283.584,178.733 285.276 C 178.799 288.311,179.298 289.583,179.800 288.000 C 180.173 286.824,179.905 262.411,179.522 262.648 C 179.345 262.758,179.200 261.937,179.200 260.824 C 179.200 259.711,179.045 258.800,178.855 258.800 C 178.666 258.800,178.597 258.350,178.702 257.800 C 178.809 257.242,178.706 256.800,178.470 256.800 C 178.237 256.800,178.116 256.435,178.202 255.989 C 178.306 255.448,178.199 255.268,177.879 255.448 C 177.541 255.638,177.547 255.559,177.900 255.179 C 178.479 254.555,178.574 253.845,178.034 254.179 C 177.833 254.303,177.577 254.179,177.466 253.902 C 177.344 253.599,177.251 253.678,177.232 254.100 C 177.202 254.763,174.034 254.800,116.557 254.800 C 62.817 254.800,55.941 254.732,56.145 254.200 C 56.404 253.523,56.366 253.490,55.800 253.906 M221.826 255.500 C 221.975 256.544,221.873 256.801,221.306 256.806 C 220.908 256.810,220.775 256.940,221.000 257.106 C 221.505 257.477,221.747 258.538,221.257 258.235 C 221.057 258.112,220.860 258.774,220.819 259.705 C 220.675 262.941,220.638 263.200,220.320 263.200 C 219.895 263.200,220.094 264.122,220.600 264.494 C 220.851 264.678,220.821 264.790,220.520 264.794 C 220.006 264.800,219.736 286.846,220.234 288.145 C 220.752 289.495,221.202 288.245,221.267 285.276 C 221.304 283.584,221.405 282.875,221.491 283.700 L 221.648 285.200 283.424 285.200 L 345.200 285.200 345.257 281.900 C 345.300 279.397,345.375 278.986,345.569 280.200 C 345.752 281.347,345.907 280.329,346.116 276.600 C 346.557 268.735,346.451 261.546,345.883 260.844 C 345.487 260.354,345.507 260.310,346.000 260.600 C 346.482 260.884,346.510 260.840,346.146 260.377 C 345.897 260.060,345.568 259.170,345.416 258.400 C 344.944 256.005,344.764 255.600,344.173 255.600 C 343.858 255.600,343.645 255.422,343.700 255.204 C 343.802 254.800,223.045 254.602,222.392 255.005 C 222.214 255.115,221.972 254.979,221.854 254.702 C 221.736 254.426,221.724 254.785,221.826 255.500 " stroke="none" fill="#7c44e4" fill-rule="evenodd"></path><path id="path3" d="M233.802 233.198 C 233.403 233.639,233.207 234.000,233.367 234.000 C 233.788 234.000,234.928 232.795,234.712 232.579 C 234.611 232.478,234.202 232.756,233.802 233.198 M53.704 291.000 C 53.691 299.580,53.840 306.795,54.035 307.034 C 54.229 307.273,54.420 308.301,54.459 309.318 C 54.497 310.335,54.680 311.074,54.864 310.960 C 55.142 310.789,55.416 313.033,55.247 314.100 C 55.221 314.265,55.380 314.400,55.600 314.400 C 55.820 314.400,56.000 314.850,56.000 315.400 C 56.000 315.950,56.180 316.400,56.400 316.400 C 56.620 316.400,56.800 316.850,56.800 317.400 C 56.800 317.950,56.980 318.400,57.200 318.400 C 57.420 318.400,57.600 318.760,57.600 319.200 C 57.600 319.640,57.752 320.000,57.937 320.000 C 58.122 320.000,58.489 320.720,58.753 321.600 C 59.016 322.480,59.416 323.200,59.640 323.200 C 59.864 323.200,59.935 323.381,59.798 323.603 C 59.661 323.824,59.831 324.114,60.175 324.246 C 60.519 324.378,60.800 324.828,60.800 325.245 C 60.800 325.663,61.250 326.397,61.800 326.875 C 62.350 327.353,62.800 327.963,62.800 328.229 C 62.800 328.496,63.096 328.828,63.457 328.967 C 63.819 329.105,64.007 329.326,63.876 329.457 C 63.562 329.771,64.605 330.800,65.238 330.800 C 65.510 330.800,65.626 330.908,65.494 331.039 C 65.185 331.348,67.704 333.941,68.100 333.720 C 68.265 333.628,68.400 333.752,68.400 333.995 C 68.400 334.496,70.397 336.609,70.406 336.118 C 70.409 335.943,70.583 336.070,70.792 336.400 C 71.000 336.730,71.321 337.000,71.504 337.000 C 71.687 337.000,72.331 337.495,72.936 338.100 C 73.541 338.705,74.276 339.200,74.569 339.200 C 74.862 339.200,75.324 339.468,75.596 339.796 C 75.868 340.123,76.250 340.293,76.445 340.172 C 76.640 340.051,76.800 340.122,76.800 340.328 C 76.800 340.534,77.385 340.928,78.100 341.202 C 80.983 342.309,81.600 342.608,81.600 342.898 C 81.600 343.064,82.039 343.200,82.576 343.200 C 83.113 343.200,83.664 343.380,83.800 343.600 C 83.936 343.820,84.622 344.003,85.324 344.006 C 86.295 344.011,86.457 344.105,86.000 344.400 C 85.561 344.684,85.855 344.789,87.100 344.794 C 88.035 344.797,88.800 344.980,88.800 345.200 C 88.800 345.420,89.790 345.600,91.000 345.600 C 92.210 345.600,93.200 345.780,93.200 346.000 C 93.200 346.262,101.267 346.400,116.600 346.400 C 131.933 346.400,140.000 346.262,140.000 346.000 C 140.000 345.780,140.902 345.600,142.005 345.600 C 143.108 345.600,144.323 345.438,144.705 345.239 C 145.087 345.040,146.210 344.649,147.200 344.369 C 148.190 344.090,149.171 343.712,149.380 343.530 C 149.589 343.349,150.264 343.200,150.880 343.200 C 151.496 343.200,152.000 343.020,152.000 342.800 C 152.000 342.580,152.360 342.400,152.800 342.400 C 153.240 342.400,153.600 342.220,153.600 342.000 C 153.600 341.780,153.938 341.600,154.351 341.600 C 154.764 341.600,155.326 341.330,155.600 341.000 C 155.874 340.670,156.346 340.400,156.649 340.400 C 156.952 340.400,157.200 340.209,157.200 339.976 C 157.200 339.743,157.365 339.655,157.568 339.780 C 157.770 339.905,158.207 339.736,158.539 339.404 C 158.871 339.072,159.346 338.800,159.595 338.800 C 159.844 338.800,159.936 338.620,159.800 338.400 C 159.580 338.044,159.859 337.927,160.664 338.036 C 160.809 338.056,161.094 337.776,161.296 337.414 C 161.499 337.052,162.111 336.586,162.656 336.379 C 163.257 336.150,163.535 335.819,163.362 335.539 C 163.180 335.245,163.252 335.185,163.560 335.375 C 164.023 335.661,165.998 333.799,166.000 333.076 C 166.000 332.898,166.180 332.864,166.400 333.000 C 166.620 333.136,166.800 332.961,166.800 332.611 C 166.800 332.261,167.205 331.811,167.700 331.612 C 168.195 331.413,168.473 331.239,168.318 331.225 C 168.163 331.211,168.433 330.760,168.918 330.223 C 169.403 329.685,170.224 328.772,170.742 328.194 C 171.260 327.616,171.813 326.661,171.971 326.072 C 172.129 325.482,172.380 325.090,172.529 325.200 C 172.875 325.455,175.163 321.232,175.184 320.300 C 175.193 319.915,175.380 319.600,175.600 319.600 C 175.820 319.600,176.000 319.245,176.000 318.812 C 176.000 318.379,176.360 317.383,176.800 316.600 C 177.240 315.817,177.600 314.879,177.600 314.516 C 177.600 313.829,178.289 311.438,178.785 310.400 C 178.943 310.070,179.106 308.823,179.146 307.629 C 179.187 306.435,179.367 305.265,179.546 305.029 C 179.726 304.793,179.895 300.820,179.923 296.200 C 179.950 291.580,179.874 288.026,179.752 288.302 C 179.241 289.468,178.796 288.147,178.733 285.276 C 178.696 283.584,178.595 282.875,178.509 283.700 L 178.352 285.200 116.576 285.200 L 54.800 285.200 54.733 281.900 C 54.686 279.589,54.599 279.079,54.444 280.200 C 54.260 281.534,54.182 281.269,53.975 278.600 C 53.839 276.840,53.717 282.420,53.704 291.000 M346.038 278.600 C 345.907 281.367,345.848 281.583,345.600 280.200 C 345.369 278.908,345.303 279.235,345.257 281.900 L 345.200 285.200 283.424 285.200 L 221.648 285.200 221.491 283.700 C 221.405 282.875,221.304 283.584,221.267 285.276 C 221.205 288.134,220.754 289.485,220.257 288.302 C 220.141 288.026,220.063 291.721,220.084 296.514 C 220.105 301.307,220.275 305.323,220.461 305.438 C 220.648 305.553,220.800 306.591,220.800 307.744 C 220.800 308.897,220.991 310.031,221.225 310.265 C 221.459 310.499,221.667 311.261,221.686 311.959 C 221.706 312.657,221.875 313.323,222.061 313.438 C 222.248 313.553,222.400 313.991,222.400 314.411 C 222.400 314.832,222.760 315.817,223.200 316.600 C 223.640 317.383,224.000 318.257,224.000 318.541 C 224.000 319.378,226.358 324.000,226.784 324.000 C 226.999 324.000,227.068 324.277,226.938 324.616 C 226.794 324.994,226.898 325.188,227.209 325.116 C 227.491 325.052,227.874 325.583,228.073 326.314 C 228.269 327.037,228.603 327.521,228.815 327.391 C 229.027 327.260,229.200 327.433,229.200 327.776 C 229.200 328.119,229.335 328.405,229.500 328.411 C 229.665 328.417,230.236 329.128,230.769 329.992 C 231.301 330.856,231.886 331.470,232.069 331.358 C 232.251 331.245,232.400 331.444,232.400 331.800 C 232.400 332.156,232.580 332.336,232.800 332.200 C 233.020 332.064,233.200 332.167,233.200 332.429 C 233.200 333.135,234.833 334.424,235.352 334.128 C 235.598 333.987,235.684 334.002,235.542 334.161 C 235.270 334.465,236.874 336.400,237.399 336.400 C 237.568 336.400,238.033 336.777,238.432 337.237 C 238.855 337.724,239.359 337.949,239.641 337.775 C 239.957 337.579,240.019 337.645,239.822 337.965 C 239.629 338.276,239.825 338.534,240.360 338.674 C 240.822 338.794,241.200 339.063,241.200 339.270 C 241.200 339.478,241.365 339.545,241.566 339.421 C 241.767 339.297,241.992 339.363,242.066 339.568 C 242.140 339.772,242.466 339.998,242.790 340.070 C 243.115 340.141,243.625 340.427,243.923 340.704 C 244.221 340.981,244.630 341.105,244.832 340.980 C 245.035 340.855,245.200 340.943,245.200 341.176 C 245.200 341.409,245.470 341.600,245.800 341.600 C 246.130 341.600,246.400 341.791,246.400 342.024 C 246.400 342.257,246.565 342.345,246.768 342.220 C 246.970 342.095,247.407 342.264,247.739 342.596 C 248.071 342.928,248.795 343.200,249.348 343.200 C 249.901 343.200,250.464 343.380,250.600 343.600 C 250.736 343.820,251.276 344.000,251.800 344.000 C 252.324 344.000,252.864 344.180,253.000 344.400 C 253.136 344.620,253.676 344.800,254.200 344.800 C 254.724 344.800,255.264 344.980,255.400 345.200 C 255.536 345.420,256.627 345.600,257.824 345.600 C 259.021 345.600,260.000 345.780,260.000 346.000 C 260.000 346.532,306.679 346.554,306.867 346.022 C 306.940 345.814,307.945 345.602,309.100 345.551 C 310.255 345.499,311.200 345.309,311.200 345.129 C 311.200 344.948,311.920 344.800,312.800 344.800 C 313.680 344.800,314.400 344.620,314.400 344.400 C 314.400 344.180,314.861 344.000,315.424 344.000 C 316.004 344.000,316.340 343.827,316.200 343.600 C 316.056 343.367,316.463 343.200,317.176 343.200 C 317.849 343.200,318.400 343.064,318.400 342.898 C 318.400 342.731,318.985 342.363,319.700 342.080 C 322.135 341.115,325.999 339.001,325.999 338.633 C 326.000 338.432,326.119 338.386,326.264 338.531 C 326.409 338.676,326.780 338.436,327.087 337.997 C 327.394 337.559,327.905 337.200,328.223 337.200 C 328.540 337.200,328.800 337.020,328.800 336.800 C 328.800 336.580,328.957 336.400,329.150 336.400 C 329.720 336.400,337.200 328.723,337.200 328.137 C 337.200 327.842,337.391 327.600,337.624 327.600 C 337.857 327.600,337.936 327.420,337.800 327.200 C 337.664 326.980,337.819 326.800,338.145 326.800 C 338.471 326.800,338.946 326.170,339.200 325.400 C 339.454 324.630,339.839 324.000,340.055 324.000 C 340.271 324.000,340.336 323.820,340.200 323.600 C 340.064 323.380,340.115 323.200,340.312 323.200 C 340.775 323.200,341.600 321.394,341.600 320.381 C 341.600 319.952,341.780 319.600,342.000 319.600 C 342.220 319.600,342.400 319.330,342.400 319.000 C 342.400 318.670,342.542 318.400,342.715 318.400 C 342.888 318.400,343.060 317.998,343.097 317.506 C 343.134 317.014,343.352 316.549,343.582 316.473 C 343.812 316.396,344.013 315.583,344.028 314.667 C 344.050 313.369,344.132 313.177,344.400 313.800 C 344.666 314.420,344.750 314.217,344.772 312.900 C 344.787 311.965,344.965 311.200,345.167 311.200 C 345.368 311.200,345.533 310.382,345.533 309.381 C 345.533 308.381,345.750 307.301,346.016 306.981 C 346.393 306.526,346.390 306.400,346.000 306.400 C 345.624 306.400,345.613 306.266,345.956 305.853 C 346.281 305.461,346.379 301.064,346.300 290.353 C 346.239 282.129,346.122 276.840,346.038 278.600 " stroke="none" fill="#8744ec" fill-rule="evenodd"></path><path id="path4" d="M92.800 54.000 C 92.800 54.220,91.900 54.400,90.800 54.400 C 89.700 54.400,88.800 54.580,88.800 54.800 C 88.800 55.020,88.080 55.200,87.200 55.200 C 86.320 55.200,85.600 55.380,85.600 55.600 C 85.600 55.820,85.150 56.000,84.600 56.000 C 84.050 56.000,83.600 56.180,83.600 56.400 C 83.600 56.620,83.251 56.800,82.824 56.800 C 82.397 56.800,81.936 56.980,81.800 57.200 C 81.664 57.420,81.203 57.600,80.776 57.600 C 80.349 57.600,80.000 57.780,80.000 58.000 C 80.000 58.220,79.640 58.400,79.200 58.400 C 78.760 58.400,78.400 58.574,78.400 58.787 C 78.400 59.001,78.123 59.068,77.784 58.938 C 77.391 58.788,77.210 58.902,77.284 59.251 C 77.363 59.623,77.078 59.762,76.400 59.682 C 75.609 59.589,75.526 59.650,76.000 59.976 C 76.593 60.383,76.152 60.613,75.100 60.447 C 74.935 60.421,74.800 60.580,74.800 60.800 C 74.800 61.020,74.665 61.179,74.500 61.153 C 73.816 61.045,73.083 61.216,73.300 61.433 C 73.718 61.851,72.220 63.052,71.500 62.877 C 71.115 62.783,70.800 62.918,70.800 63.177 C 70.800 63.436,71.008 63.519,71.262 63.362 C 71.550 63.184,71.615 63.252,71.434 63.545 C 71.275 63.802,70.982 63.912,70.782 63.789 C 70.583 63.666,69.800 64.203,69.043 64.983 C 68.286 65.762,67.742 66.400,67.833 66.400 C 67.925 66.400,67.685 66.730,67.300 67.133 C 66.915 67.537,66.548 67.829,66.484 67.784 C 66.232 67.604,63.731 70.218,63.884 70.500 C 63.974 70.665,63.746 70.800,63.377 70.800 C 62.904 70.800,62.768 71.035,62.916 71.600 C 63.052 72.120,62.928 72.400,62.563 72.400 C 62.253 72.400,62.000 72.681,62.000 73.024 C 62.000 73.367,61.833 73.544,61.629 73.418 C 61.296 73.212,60.700 74.362,60.601 75.400 C 60.581 75.620,60.335 75.751,60.055 75.691 C 59.735 75.622,59.594 75.918,59.673 76.491 C 59.755 77.080,59.613 77.361,59.270 77.290 C 58.897 77.213,58.821 77.436,59.013 78.040 C 59.215 78.679,59.154 78.819,58.775 78.584 C 58.413 78.361,58.338 78.460,58.515 78.924 C 58.664 79.312,58.514 79.720,58.148 79.925 C 57.807 80.116,57.559 80.346,57.597 80.436 C 57.769 80.848,57.070 82.810,56.616 83.187 C 56.338 83.417,56.160 84.055,56.220 84.603 C 56.291 85.247,56.129 85.600,55.765 85.600 C 55.454 85.600,55.200 85.881,55.200 86.224 C 55.200 86.606,55.393 86.738,55.700 86.565 C 56.100 86.339,56.100 86.390,55.700 86.821 C 55.425 87.118,55.200 87.785,55.200 88.304 C 55.200 88.831,55.023 89.138,54.800 89.000 C 54.580 88.864,54.400 88.943,54.400 89.176 C 54.400 89.409,54.625 89.603,54.900 89.606 C 55.210 89.610,55.248 89.724,55.000 89.906 C 54.557 90.232,54.347 91.587,54.747 91.537 C 55.831 91.401,55.280 92.399,53.993 92.904 C 53.515 93.092,53.531 93.143,54.076 93.168 C 54.448 93.186,54.836 93.065,54.938 92.900 C 55.040 92.735,82.788 92.690,116.600 92.800 C 150.412 92.910,178.207 92.910,178.367 92.800 C 178.940 92.406,179.146 91.248,178.678 91.057 C 178.323 90.913,178.328 90.855,178.700 90.832 C 179.454 90.784,179.300 89.855,178.450 89.324 C 178.035 89.065,177.700 88.400,177.700 87.835 C 177.700 87.237,177.870 86.920,178.112 87.069 C 178.357 87.221,178.402 87.126,178.221 86.835 C 178.055 86.566,177.642 86.452,177.303 86.582 C 176.832 86.762,176.789 86.695,177.121 86.296 C 177.387 85.975,177.417 85.551,177.198 85.197 C 176.971 84.830,177.016 84.511,177.321 84.317 C 177.687 84.084,177.682 84.011,177.300 84.006 C 177.025 84.003,176.800 83.629,176.800 83.176 C 176.800 82.723,176.639 82.452,176.443 82.574 C 176.053 82.814,175.424 80.842,175.778 80.489 C 175.897 80.369,175.636 80.020,175.197 79.713 C 174.759 79.406,174.403 78.940,174.406 78.677 C 174.410 78.389,174.566 78.438,174.800 78.800 C 175.013 79.130,175.185 79.220,175.181 79.000 C 175.168 78.183,174.096 77.124,173.844 77.679 C 173.714 77.965,173.708 77.794,173.831 77.298 C 173.981 76.696,173.847 76.316,173.430 76.156 C 173.086 76.024,172.910 75.745,173.039 75.537 C 173.168 75.328,172.869 74.807,172.376 74.379 C 171.882 73.950,171.640 73.595,171.839 73.588 C 172.037 73.581,171.885 73.392,171.500 73.168 C 171.115 72.944,170.800 72.499,170.800 72.180 C 170.800 71.861,170.641 71.600,170.447 71.600 C 170.252 71.600,169.994 71.222,169.874 70.760 C 169.753 70.298,169.464 70.037,169.232 70.181 C 168.966 70.345,168.907 70.186,169.074 69.751 C 169.275 69.226,169.182 69.121,168.682 69.313 C 168.321 69.452,167.902 69.365,167.751 69.121 C 167.585 68.852,167.659 68.789,167.938 68.962 C 168.192 69.119,168.400 69.057,168.400 68.824 C 168.400 68.591,168.202 68.400,167.960 68.400 C 167.546 68.400,165.200 66.130,165.200 65.729 C 165.200 65.152,164.050 64.441,163.864 64.904 C 163.753 65.177,163.649 64.995,163.632 64.500 C 163.610 63.877,163.354 63.600,162.800 63.600 C 162.360 63.600,162.000 63.420,162.000 63.200 C 162.000 62.980,161.719 62.800,161.376 62.800 C 161.033 62.800,160.842 62.656,160.951 62.480 C 161.059 62.304,160.755 61.915,160.274 61.616 C 159.453 61.104,159.433 61.117,159.950 61.836 C 160.252 62.256,160.064 62.138,159.532 61.573 C 158.999 61.008,158.322 60.626,158.026 60.725 C 157.704 60.832,157.601 60.723,157.768 60.452 C 157.930 60.190,157.785 60.000,157.424 60.000 C 157.081 60.000,156.800 59.809,156.800 59.576 C 156.800 59.343,156.620 59.264,156.400 59.400 C 156.180 59.536,156.000 59.473,156.000 59.261 C 156.000 59.048,155.014 58.564,153.809 58.185 C 152.603 57.806,151.691 57.377,151.781 57.231 C 151.871 57.085,151.393 56.924,150.719 56.873 C 150.046 56.821,149.023 56.463,148.447 56.076 C 147.871 55.690,146.860 55.316,146.200 55.246 C 145.540 55.176,144.908 54.970,144.795 54.789 C 144.682 54.608,143.392 54.407,141.927 54.341 C 140.462 54.275,139.350 54.081,139.455 53.911 C 139.561 53.740,129.107 53.600,116.224 53.600 C 100.875 53.600,92.800 53.738,92.800 54.000 M260.545 53.911 C 260.650 54.081,259.538 54.275,258.073 54.341 C 256.608 54.407,255.311 54.621,255.189 54.817 C 255.068 55.014,254.377 55.220,253.654 55.275 C 252.931 55.330,252.252 55.515,252.146 55.687 C 252.040 55.859,251.618 56.000,251.210 56.000 C 250.801 56.000,250.407 56.178,250.333 56.397 C 250.260 56.615,249.718 56.833,249.129 56.881 C 248.540 56.930,248.145 57.112,248.252 57.285 C 248.360 57.458,247.942 57.603,247.324 57.606 C 246.451 57.611,246.334 57.699,246.800 58.000 C 247.262 58.298,247.123 58.391,246.200 58.401 C 244.899 58.415,241.018 60.485,241.462 60.928 C 241.611 61.078,241.343 61.200,240.867 61.200 C 240.387 61.200,240.045 61.423,240.100 61.700 C 240.155 61.975,239.885 62.175,239.500 62.144 C 239.115 62.114,238.800 62.350,238.800 62.668 C 238.800 62.987,238.620 63.136,238.400 63.000 C 238.180 62.864,238.000 62.943,238.000 63.176 C 238.000 63.409,237.717 63.600,237.371 63.600 C 236.641 63.600,235.600 64.538,235.600 65.195 C 235.600 65.444,235.420 65.536,235.200 65.400 C 234.980 65.264,234.800 65.427,234.800 65.762 C 234.800 66.098,234.440 66.565,234.000 66.800 C 233.560 67.035,233.200 67.492,233.200 67.814 C 233.200 68.136,233.065 68.379,232.900 68.353 C 232.015 68.213,231.539 68.465,231.733 68.971 C 231.854 69.285,231.689 69.760,231.367 70.027 C 230.881 70.431,230.825 70.385,231.040 69.757 C 231.252 69.136,231.180 69.158,230.642 69.878 C 230.281 70.361,230.034 70.928,230.093 71.138 C 230.152 71.348,230.051 71.526,229.870 71.534 C 229.330 71.556,227.996 73.276,227.746 74.271 C 227.619 74.779,227.356 75.096,227.162 74.976 C 226.968 74.857,226.916 75.038,227.047 75.379 C 227.178 75.721,227.104 76.000,226.882 76.000 C 226.197 76.000,224.826 78.666,225.278 79.118 C 225.548 79.388,225.417 79.604,224.881 79.774 C 224.354 79.941,224.147 80.275,224.272 80.754 C 224.377 81.154,224.178 81.765,223.831 82.112 C 223.484 82.459,223.200 83.026,223.200 83.371 C 223.200 83.717,222.975 84.003,222.700 84.006 C 222.332 84.011,222.343 84.103,222.743 84.356 C 223.127 84.600,223.154 84.781,222.836 84.978 C 222.589 85.130,222.478 85.402,222.589 85.582 C 222.700 85.762,222.523 86.132,222.196 86.404 C 221.868 86.676,221.600 87.506,221.600 88.249 C 221.600 88.992,221.420 89.600,221.200 89.600 C 220.683 89.600,220.680 90.678,221.195 90.997 C 221.430 91.142,221.489 90.948,221.342 90.521 C 221.128 89.904,221.185 89.916,221.733 90.600 C 222.568 91.641,222.559 91.949,221.700 91.820 C 221.315 91.762,221.225 91.792,221.500 91.887 C 221.775 91.981,222.000 92.270,222.000 92.529 C 222.000 92.889,236.493 92.953,283.484 92.800 L 344.967 92.600 345.226 91.335 C 345.424 90.365,345.358 90.118,344.945 90.277 C 344.648 90.391,344.521 90.673,344.664 90.904 C 344.822 91.159,344.729 91.204,344.427 91.017 C 344.069 90.796,344.052 90.588,344.365 90.275 C 344.604 90.036,344.797 89.561,344.794 89.220 C 344.788 88.672,344.737 88.670,344.356 89.200 C 344.009 89.682,343.980 89.643,344.208 89.000 C 344.867 87.137,344.925 86.676,344.463 86.961 C 344.139 87.161,344.000 86.715,344.000 85.473 C 344.000 84.416,343.767 83.505,343.424 83.220 C 343.107 82.957,342.937 82.508,343.047 82.222 C 343.156 81.937,342.947 81.588,342.581 81.448 C 342.197 81.301,342.013 80.942,342.146 80.597 C 342.272 80.268,342.201 80.000,341.987 80.000 C 341.774 80.000,341.600 79.629,341.600 79.176 C 341.600 78.676,341.426 78.460,341.157 78.626 C 340.859 78.811,340.802 78.623,340.983 78.053 C 341.196 77.381,341.118 77.257,340.606 77.453 C 340.072 77.658,340.003 77.501,340.212 76.551 C 340.405 75.672,340.364 75.542,340.038 76.000 C 339.685 76.497,339.611 76.446,339.606 75.700 C 339.603 75.205,339.409 74.800,339.176 74.800 C 338.943 74.800,338.864 74.620,339.000 74.400 C 339.136 74.180,339.027 74.000,338.757 74.000 C 338.487 74.000,338.386 73.881,338.531 73.736 C 338.676 73.591,338.436 73.220,337.997 72.913 C 337.559 72.606,337.200 72.010,337.200 71.590 C 337.200 71.041,337.012 70.897,336.534 71.081 C 336.134 71.234,335.969 71.174,336.120 70.930 C 336.258 70.707,335.747 69.844,334.985 69.012 C 334.223 68.180,333.600 67.627,333.600 67.784 C 333.600 67.940,333.195 67.591,332.700 67.008 C 330.398 64.299,328.674 62.763,328.158 62.961 C 327.837 63.084,327.600 62.926,327.600 62.587 C 327.600 62.264,327.375 62.045,327.100 62.100 C 326.825 62.155,326.645 61.975,326.700 61.700 C 326.755 61.425,326.620 61.178,326.400 61.150 C 326.180 61.123,325.805 61.078,325.568 61.050 C 325.330 61.023,324.921 60.730,324.660 60.400 C 323.973 59.534,322.431 58.733,321.984 59.010 C 321.773 59.140,321.600 59.057,321.600 58.824 C 321.600 58.591,321.139 58.400,320.576 58.400 C 319.996 58.400,319.660 58.227,319.800 58.000 C 319.936 57.780,319.802 57.600,319.503 57.600 C 318.749 57.600,316.807 56.665,316.803 56.300 C 316.801 56.135,316.159 56.000,315.376 56.000 C 314.529 56.000,314.053 55.838,314.200 55.600 C 314.349 55.358,313.804 55.200,312.824 55.200 C 311.931 55.200,311.200 55.054,311.200 54.875 C 311.200 54.696,310.345 54.506,309.300 54.453 C 308.255 54.400,307.340 54.187,307.267 53.979 C 307.185 53.746,298.092 53.600,283.743 53.600 C 270.878 53.600,260.439 53.740,260.545 53.911 M179.200 94.944 C 179.200 95.400,179.024 95.542,178.700 95.347 C 178.343 95.133,178.353 95.236,178.734 95.706 C 179.028 96.068,179.136 96.581,178.973 96.844 C 178.779 97.157,178.846 97.219,179.165 97.021 C 179.434 96.855,179.562 96.479,179.450 96.185 C 179.337 95.892,179.460 95.573,179.722 95.476 C 180.087 95.342,180.082 95.175,179.700 94.770 C 179.289 94.334,179.200 94.365,179.200 94.944 M220.088 96.800 C 220.124 98.073,220.565 98.390,220.940 97.413 C 221.064 97.090,220.990 96.717,220.776 96.585 C 220.562 96.453,220.491 96.177,220.617 95.972 C 220.744 95.768,220.669 95.600,220.450 95.600 C 220.232 95.600,220.069 96.140,220.088 96.800 " stroke="none" fill="#3c44d6" fill-rule="evenodd"></path></g></svg>